<svg xmlns="http://www.w3.org/2000/svg" version="1.1" xmlns:xlink="http://www.w3.org/1999/xlink" xmlns:svgjs="http://svgjs.com/svgjs" width="1440" height="560" preserveAspectRatio="none" viewBox="0 0 1440 560"><g mask="url(&quot;#SvgjsMask1029&quot;)" fill="none"><rect width="1440" height="560" x="0" y="0" fill="rgba(255, 255, 255, 1)"></rect><path d="M68.157,164.583C103.473,166.419,138.571,149.644,155.938,118.838C173.04,88.503,168.128,50.561,148.748,21.628C131.369,-4.318,99.379,-11.615,68.157,-12.216C35.497,-12.844,-1.238,-9.624,-17.989,18.42C-35.016,46.926,-21.983,81.861,-5.123,110.466C11.403,138.504,35.655,162.894,68.157,164.583" fill="rgba(59, 113, 202, 0.44)" class="triangle-float3"></path><path d="M93.063,193.425C131.238,194.396,168.929,180.84,190.4,149.261C214.901,113.224,228.358,65.245,205.391,28.211C183.186,-7.594,135.117,-10.241,93.063,-7.695C56.335,-5.471,20.648,8.768,2.057,40.521C-16.719,72.589,-15.062,112.585,3.943,144.517C22.518,175.726,56.756,192.501,93.063,193.425" fill="rgba(59, 113, 202, 0.44)" class="triangle-float3"></path><path d="M34.076,85.734C56.281,86.796,82.106,87.458,93.897,68.613C106.104,49.103,97.389,24.046,84.678,4.861C73.403,-12.157,54.48,-22.3,34.076,-21.677C14.712,-21.086,-1.523,-8.845,-11.442,7.796C-21.644,24.911,-26.642,46.123,-16.593,63.329C-6.611,80.421,14.306,84.789,34.076,85.734" fill="rgba(59, 113, 202, 0.44)" class="triangle-float3"></path><path d="M1467.21,281.397C1519.613,280.966,1572.292,260.384,1597.805,214.609C1622.769,169.82,1609.323,116.367,1584.061,71.746C1558.334,26.303,1519.385,-13.901,1467.21,-16.061C1411.695,-18.359,1360.079,13.2,1332.308,61.325C1304.547,109.432,1303.813,169.436,1332.84,216.789C1360.678,262.203,1413.945,281.835,1467.21,281.397" fill="rgba(59, 113, 202, 0.44)" class="triangle-float3"></path><path d="M1410.3536764524256 153.00707513542375L1499.8008535777224 85.60379254239434 1353.9723411255297-14.865331849036124z" fill="rgba(59, 113, 202, 0.44)" class="triangle-float1"></path><path d="M1472.3207339944186-42.09011249310167L1304.5509721556502-33.29767184428709 1481.1131746432332 125.67964934566673z" fill="rgba(59, 113, 202, 0.44)" class="triangle-float2"></path><path d="M59.297,596.918C89.31,596.993,112.322,572.52,125.94,545.774C138.23,521.636,136.709,493.865,123.93,469.982C110.284,444.478,88.171,422.94,59.297,421.221C27.531,419.33,-5.253,433.307,-20.196,461.402C-34.474,488.246,-22.156,519.217,-6.772,545.443C8.368,571.253,29.374,596.843,59.297,596.918" fill="rgba(59, 113, 202, 0.44)" class="triangle-float3"></path><path d="M187.91285909028912 508.60649854528936L73.33713459978935 385.73907667326876 65.04543721826849 623.1822230357891z" fill="rgba(59, 113, 202, 0.44)" class="triangle-float1"></path><path d="M-94.4 467.73 a114.13 114.13 0 1 0 228.26 0 a114.13 114.13 0 1 0 -228.26 0z" fill="rgba(59, 113, 202, 0.44)" class="triangle-float2"></path><path d="M1204.14 497.19 a173.05 173.05 0 1 0 346.1 0 a173.05 173.05 0 1 0 -346.1 0z" fill="rgba(59, 113, 202, 0.44)" class="triangle-float1"></path><path d="M1333.1670233985972 425.7240803250938L1346.3904616062155 617.4537123413274 1487.2871170210467 525.954354458803z" fill="rgba(59, 113, 202, 0.44)" class="triangle-float1"></path><path d="M1386.192,588.165C1414.027,588.571,1435.203,566.629,1449.507,542.747C1464.329,518,1475.449,487.966,1461.241,462.862C1446.885,437.497,1415.335,430.488,1386.192,430.876C1357.866,431.253,1328.122,439.962,1314.529,464.817C1301.332,488.949,1312.179,517.162,1325.996,540.945C1339.727,564.579,1358.862,587.766,1386.192,588.165" fill="rgba(59, 113, 202, 0.44)" class="triangle-float1"></path></g><defs><mask id="SvgjsMask1029"><rect width="1440" height="560" fill="#ffffff"></rect></mask><style>
            @keyframes float1 {
                0%{transform: translate(0, 0)}
                50%{transform: translate(-10px, 0)}
                100%{transform: translate(0, 0)}
            }

            .triangle-float1 {
                animation: float1 5s infinite;
            }

            @keyframes float2 {
                0%{transform: translate(0, 0)}
                50%{transform: translate(-5px, -5px)}
                100%{transform: translate(0, 0)}
            }

            .triangle-float2 {
                animation: float2 4s infinite;
            }

            @keyframes float3 {
                0%{transform: translate(0, 0)}
                50%{transform: translate(0, -10px)}
                100%{transform: translate(0, 0)}
            }

            .triangle-float3 {
                animation: float3 6s infinite;
            }
        </style></defs></svg>