<svg xmlns="http://www.w3.org/2000/svg" version="1.1" xmlns:xlink="http://www.w3.org/1999/xlink" xmlns:svgjs="http://svgjs.dev/svgjs" width="2000" height="767" viewBox="0 0 2000 767"><g transform="matrix(1,0,0,1,-1.2121212121212466,-1.1503475960975038)"><svg viewBox="0 0 396 152" data-background-color="#ffffff" preserveAspectRatio="xMidYMid meet" height="767" width="2000" xmlns="http://www.w3.org/2000/svg" xmlns:xlink="http://www.w3.org/1999/xlink"><g id="tight-bounds" transform="matrix(1,0,0,1,0.2400000000000091,0.22796979740132883)"><svg viewBox="0 0 395.52 151.54406040519734" height="151.54406040519734" width="395.52"><g><svg viewBox="0 0 395.52 151.54406040519734" height="151.54406040519734" width="395.52"><g><svg viewBox="0 0 395.52 151.54406040519734" height="151.54406040519734" width="395.52"><g><svg viewBox="0 0 395.52 151.54406040519734" height="151.54406040519734" width="395.52"><g><rect width="395.52" height="111.69533622076474" fill="none" stroke-width="9.018103199999999" stroke="#000000" data-fill-palette-color="none" data-stroke-palette-color="tertiary"></rect><rect width="395.52" height="39.84872418443261" y="111.69533622076474" fill="#000000" data-fill-palette-color="tertiary"></rect></g><g><svg viewBox="0 0 395.52 111.69533622076474" height="111.69533622076474" width="395.52"><g transform="matrix(1,0,0,1,23.607599999999998,23.607599999999998)"><svg width="348.3048" viewBox="2.859999895095825 -36.040000915527344 197.27000427246094 36.53000259399414" height="64.48013622076475" data-palette-color="#3b71ca"><path d="M2.86-35.55L12.23-35.55 18.95-9.84 25.63-35.55 35.01-35.55 35.01 0 27.81 0 27.81-9.62 28.47-24.44 21.36 0 16.48 0 9.38-24.44 10.03-9.62 10.03 0 2.86 0 2.86-35.55ZM59.13-21.17L59.13-15.38 47.95-15.38 47.95-5.96 61.18-5.96 61.18 0 40.77 0 40.77-35.55 61.13-35.55 61.13-29.57 47.95-29.57 47.95-21.17 59.13-21.17ZM74.51 0L65.3 0 65.3-35.55 74.7-35.55Q80.93-35.55 84.63-31.59 88.33-27.64 88.4-20.75L88.4-20.75 88.4-14.99Q88.4-7.98 84.7-3.99 81 0 74.51 0L74.51 0ZM75.09-29.57L72.48-29.57 72.48-5.96 74.63-5.96Q78.22-5.96 79.68-7.85 81.15-9.74 81.22-14.38L81.22-14.38 81.22-20.56Q81.22-25.54 79.83-27.5 78.44-29.47 75.09-29.57L75.09-29.57ZM101.04-35.55L101.04 0 93.86 0 93.86-35.55 101.04-35.55ZM123.99-11.84L131.17-11.84Q130.9-5.76 127.75-2.64 124.6 0.49 118.86 0.49L118.86 0.49Q112.83 0.49 109.62-3.48 106.41-7.45 106.41-14.79L106.41-14.79 106.41-20.78Q106.41-28.1 109.73-32.07 113.05-36.04 118.96-36.04L118.96-36.04Q124.77-36.04 127.79-32.79 130.8-29.54 131.22-23.46L131.22-23.46 124.01-23.46Q123.92-27.22 122.85-28.65 121.79-30.08 118.96-30.08L118.96-30.08Q116.08-30.08 114.88-28.06 113.69-26.05 113.61-21.44L113.61-21.44 113.61-14.72Q113.61-9.42 114.8-7.45 115.98-5.47 118.86-5.47L118.86-5.47Q121.69-5.47 122.77-6.85 123.84-8.23 123.99-11.84L123.99-11.84ZM143.08-35.55L143.08 0 135.9 0 135.9-35.55 143.08-35.55ZM173.96-35.55L173.96 0 166.78 0 156.28-23.32 156.28 0 149.11 0 149.11-35.55 156.28-35.55 166.81-12.21 166.81-35.55 173.96-35.55ZM198.08-21.17L198.08-15.38 186.9-15.38 186.9-5.96 200.13-5.96 200.13 0 179.72 0 179.72-35.55 200.08-35.55 200.08-29.57 186.9-29.57 186.9-21.17 198.08-21.17Z" opacity="1" transform="matrix(1,0,0,1,0,0)" fill="#000000" class="undefined-text-0" data-fill-palette-color="primary" id="text-0"></path></svg></g></svg></g></svg></g></svg></g></svg></g><defs></defs></svg><rect width="395.52" height="151.54406040519734" fill="none" stroke="none" visibility="hidden"></rect></g></svg></g></svg>